PathFileType	4	(X/Y/Z)	C:\Users\Kira\Nextcloud\Documents\MA\Daten\C3D\P01\post\Stand01\marker_experimental.trc																																																																																																																																																																																																																																																																																																																																																																																																																																																																																																																																																																																																																																																																																																																			
DataRate	CameraRate	NumFrames	NumMarkers	Units	OrigDataRate	OrigDataStartFrame	OrigNumFrames																																																																																																																																																																																																																																																																																																																																																																																																																																																																																																																																																																																																																																																																																																															
150	150	2	231	mm	150	93	150																																																																																																																																																																																																																																																																																																																																																																																																																																																																																																																																																																																																																																																																																																															
Frame#	Time	LFHD			LBHD			RFHD			RBHD			C7			T10			CLAV			STRN			RBAK			LSHO			LUPA			LELB			LFRA			LWRB			LWRA			LFIN			RSHO			RUPA			RELB			RFRA			RWRB			RWRA			RFIN			SACR			LASI			RASI			LT1			LT2			LT3			LS1			LS2			LS3			LHEE			LTOE			RT1			RT2			RT3			RS1			RS2			RS3			RHEE			RTOE			PELO			PELA			PELL			PELP			SACO			SACA			SACL			SACP			LFEO			LFEA			LFEL			LFEP			RFEO			RFEA			RFEL			RFEP			LTIO			LTIA			LTIL			LTIP			RTIO			RTIA			RTIL			RTIP			LFOO			LFOA			LFOL			LFOP			RFOO			RFOA			RFOL			RFOP			LTOO			LTOA			LTOL			LTOP			RTOO			RTOA			RTOL			RTOP			HEDO			HEDA			HEDL			HEDP			LCLO			LCLA			LCLL			LCLP			RCLO			RCLA			RCLL			RCLP			TRXO			TRXA			TRXL			TRXP			LHUO			LHUA			LHUL			LHUP			LRAO			LRAA			LRAL			LRAP			LHNO			LHNA			LHNL			LHNP			RHUO			RHUA			RHUL			RHUP			RRAO			RRAA			RRAL			RRAP			RHNO			RHNA			RHNL			RHNP			LPelvisAngles			RPelvisAngles			LFootProgressAngles			RFootProgressAngles			LHipAngles			RHipAngles			LKneeAngles			RKneeAngles			LAnkleAngles			RAnkleAngles			LFFootAngles			RFFootAngles			LAbsAnkleAngle			RAbsAnkleAngle			RNeckAngles			LNeckAngles			RSpineAngles			LSpineAngles			LShoulderAngles			LElbowAngles			LWristAngles			RShoulderAngles			RElbowAngles			RWristAngles			RThoraxAngles			LThoraxAngles			RHeadAngles			LHeadAngles			LHipPower			LKneePower			LAnklePower			RHipPower			RKneePower			RAnklePower			LWaistPower			RWaistPower			LNeckPower			RNeckPower			LShoulderPower			RShoulderPower			LElbowPower			RElbowPower			LWristPower			RWristPower			F_ForcePlate1			F_ForcePlate2			F_ForcePlate3			LGRF			RGRF			LHipForce			RHipForce			LKneeForce			RKneeForce			LAnkleForce			RAnkleForce			LWaistForce			RWaistForce			LNeckForce			RNeckForce			LShoulderForce			RShoulderForce			LElbowForce			RElbowForce			LWristForce			RWristForce			LNormalisedGRF			RNormalisedGRF			LGroundReactionForce			RGroundReactionForce			LHipMoment			RHipMoment			LKneeMoment			RKneeMoment			LAnkleMoment			RAnkleMoment			LWaistMoment			RWaistMoment			LNeckMoment			RNeckMoment			LShoulderMoment			RShoulderMoment			LElbowMoment			RElbowMoment			LWristMoment			RWristMoment			LKNE			RKNE			LANK			RANK			LKJC			RKJC			LAJC			RAJC			LTHI			RTHI			LTIB			RTIB			P_ForcePlate1			P_ForcePlate2			P_ForcePlate3			CentreOfMass			CentreOfMassFloor			funktRKJC			funktLKJC			funktRHIP			funktLHIP			LHJC			RHJC			LHF		
		X1	Y1	Z1	X2	Y2	Z2	X3	Y3	Z3	X4	Y4	Z4	X5	Y5	Z5	X6	Y6	Z6	X7	Y7	Z7	X8	Y8	Z8	X9	Y9	Z9	X10	Y10	Z10	X11	Y11	Z11	X12	Y12	Z12	X13	Y13	Z13	X14	Y14	Z14	X15	Y15	Z15	X16	Y16	Z16	X17	Y17	Z17	X18	Y18	Z18	X19	Y19	Z19	X20	Y20	Z20	X21	Y21	Z21	X22	Y22	Z22	X23	Y23	Z23	X24	Y24	Z24	X25	Y25	Z25	X26	Y26	Z26	X27	Y27	Z27	X28	Y28	Z28	X29	Y29	Z29	X30	Y30	Z30	X31	Y31	Z31	X32	Y32	Z32	X33	Y33	Z33	X34	Y34	Z34	X35	Y35	Z35	X36	Y36	Z36	X37	Y37	Z37	X38	Y38	Z38	X39	Y39	Z39	X40	Y40	Z40	X41	Y41	Z41	X42	Y42	Z42	X43	Y43	Z43	X44	Y44	Z44	X45	Y45	Z45	X46	Y46	Z46	X47	Y47	Z47	X48	Y48	Z48	X49	Y49	Z49	X50	Y50	Z50	X51	Y51	Z51	X52	Y52	Z52	X53	Y53	Z53	X54	Y54	Z54	X55	Y55	Z55	X56	Y56	Z56	X57	Y57	Z57	X58	Y58	Z58	X59	Y59	Z59	X60	Y60	Z60	X61	Y61	Z61	X62	Y62	Z62	X63	Y63	Z63	X64	Y64	Z64	X65	Y65	Z65	X66	Y66	Z66	X67	Y67	Z67	X68	Y68	Z68	X69	Y69	Z69	X70	Y70	Z70	X71	Y71	Z71	X72	Y72	Z72	X73	Y73	Z73	X74	Y74	Z74	X75	Y75	Z75	X76	Y76	Z76	X77	Y77	Z77	X78	Y78	Z78	X79	Y79	Z79	X80	Y80	Z80	X81	Y81	Z81	X82	Y82	Z82	X83	Y83	Z83	X84	Y84	Z84	X85	Y85	Z85	X86	Y86	Z86	X87	Y87	Z87	X88	Y88	Z88	X89	Y89	Z89	X90	Y90	Z90	X91	Y91	Z91	X92	Y92	Z92	X93	Y93	Z93	X94	Y94	Z94	X95	Y95	Z95	X96	Y96	Z96	X97	Y97	Z97	X98	Y98	Z98	X99	Y99	Z99	X100	Y100	Z100	X101	Y101	Z101	X102	Y102	Z102	X103	Y103	Z103	X104	Y104	Z104	X105	Y105	Z105	X106	Y106	Z106	X107	Y107	Z107	X108	Y108	Z108	X109	Y109	Z109	X110	Y110	Z110	X111	Y111	Z111	X112	Y112	Z112	X113	Y113	Z113	X114	Y114	Z114	X115	Y115	Z115	X116	Y116	Z116	X117	Y117	Z117	X118	Y118	Z118	X119	Y119	Z119	X120	Y120	Z120	X121	Y121	Z121	X122	Y122	Z122	X123	Y123	Z123	X124	Y124	Z124	X125	Y125	Z125	X126	Y126	Z126	X127	Y127	Z127	X128	Y128	Z128	X129	Y129	Z129	X130	Y130	Z130	X131	Y131	Z131	X132	Y132	Z132	X133	Y133	Z133	X134	Y134	Z134	X135	Y135	Z135	X136	Y136	Z136	X137	Y137	Z137	X138	Y138	Z138	X139	Y139	Z139	X140	Y140	Z140	X141	Y141	Z141	X142	Y142	Z142	X143	Y143	Z143	X144	Y144	Z144	X145	Y145	Z145	X146	Y146	Z146	X147	Y147	Z147	X148	Y148	Z148	X149	Y149	Z149	X150	Y150	Z150	X151	Y151	Z151	X152	Y152	Z152	X153	Y153	Z153	X154	Y154	Z154	X155	Y155	Z155	X156	Y156	Z156	X157	Y157	Z157	X158	Y158	Z158	X159	Y159	Z159	X160	Y160	Z160	X161	Y161	Z161	X162	Y162	Z162	X163	Y163	Z163	X164	Y164	Z164	X165	Y165	Z165	X166	Y166	Z166	X167	Y167	Z167	X168	Y168	Z168	X169	Y169	Z169	X170	Y170	Z170	X171	Y171	Z171	X172	Y172	Z172	X173	Y173	Z173	X174	Y174	Z174	X175	Y175	Z175	X176	Y176	Z176	X177	Y177	Z177	X178	Y178	Z178	X179	Y179	Z179	X180	Y180	Z180	X181	Y181	Z181	X182	Y182	Z182	X183	Y183	Z183	X184	Y184	Z184	X185	Y185	Z185	X186	Y186	Z186	X187	Y187	Z187	X188	Y188	Z188	X189	Y189	Z189	X190	Y190	Z190	X191	Y191	Z191	X192	Y192	Z192	X193	Y193	Z193	X194	Y194	Z194	X195	Y195	Z195	X196	Y196	Z196	X197	Y197	Z197	X198	Y198	Z198	X199	Y199	Z199	X200	Y200	Z200	X201	Y201	Z201	X202	Y202	Z202	X203	Y203	Z203	X204	Y204	Z204	X205	Y205	Z205	X206	Y206	Z206	X207	Y207	Z207	X208	Y208	Z208	X209	Y209	Z209	X210	Y210	Z210	X211	Y211	Z211	X212	Y212	Z212	X213	Y213	Z213	X214	Y214	Z214	X215	Y215	Z215	X216	Y216	Z216	X217	Y217	Z217	X218	Y218	Z218	X219	Y219	Z219	X220	Y220	Z220	X221	Y221	Z221	X222	Y222	Z222	X223	Y223	Z223	X224	Y224	Z224	X225	Y225	Z225	X226	Y226	Z226	X227	Y227	Z227	X228	Y228	Z228	X229	Y229	Z229	X230	Y230	Z230	X231	Y231	Z231
																																																																																																																																																																																																																																																																																																																																																																																																																																																																																																																																																																																																																																																																																																																						
94	0.62	-334.432312	1545.611938	1298.571899	-333.0174255	1521.57959	1159.284058	-461.1490173	1542.956909	1306.446899	-483.906311	1518.331177	1180.59668	-400.5194397	1406.340942	1149.029175	-393.3828735	1225.994629	1086.093384	-406.5224304	1338.728149	1266.345825	-407.5504456	1302.360596	1286.890137	-508.0134888	1267.650879	1076.749634	-254.1474762	1379.869873	1182.053955	-145.9965668	1189.35144	1152.285767	-88.51707458	1113.780151	1172.576416	-42.15284729	1070.524902	1193.631348	47.7253685	939.8499146	1269.773071	21.51836777	948.0543823	1333.924316	77.07461548	899.1978149	1351.233765	-554.5777588	1367.795898	1175.496826	-622.6243286	1281.773438	1156.314331	-694.3309326	1092.929932	1145.498779	-817.6247559	952.1682129	1201.615112	-843.2128296	910.005188	1219.692261	-842.8637085	935.4749756	1285.418823	-901.3706055	883.9707642	1294.808838	-393.7880249	971.7329712	1081.79126	-254.3122711	934.1280518	1268.302856	-540.5626221	934.1911011	1259.352295	-206.4467468	643.6048584	1238.120117	-191.1538391	553.4267578	1156.433716	-235.5090179	566.9102783	1292.127563	-202.937561	258.3058472	1178.964844	-188.1404572	179.7496185	1086.839478	-227.6576691	178.5084686	1223.451782	-275.5512085	39.39952087	1091.225708	-226.2817993	38.89113235	1252.05188	-583.7700195	661.0060425	1197.074951	-555.2090454	589.6920776	1099.761108	-582.7494507	572.1694946	1239.855347	-577.0806885	267.6434326	1153.519775	-555.1569214	203.0238647	1053.466064	-571.2675781	182.423172	1193.267456	-495.223175	41.33202744	1085.152344	-539.8673096	39.88183594	1246.263428	-395.3816223	848.7234497	1198.437866	-395.8449402	845.6687012	1213.232544	-382.7928772	848.7207031	1198.831543	-396.1502075	972.0730591	1223.882568	-393.5767822	959.6158447	1140.53833	-393.7698669	958.3430176	1146.702881	-387.2824097	959.614502	1140.735229	-393.9613037	1021.290649	1153.26062	-281.6473389	469.6714172	1218.209106	-274.9125366	472.3330994	1255.807983	-244.2980652	474.3470154	1211.187988	-332.4400635	848.7724609	1200.470093	-498.7120667	473.9603271	1206.259033	-505.9012756	475.7073364	1243.227417	-461.923584	470.1878662	1213.591553	-458.3232117	848.6743164	1196.40564	-266.45401	45.469944	1149.521851	-248.4337921	40.69494629	1182.997437	-231.540451	49.66668701	1131.326172	-280.4439087	436.0714111	1212.768555	-505.4039307	50.52231979	1142.137573	-521.083374	45.34641266	1177.953979	-469.2207336	47.61544418	1157.557495	-499.2421265	440.4207764	1201.180176	-227.0210419	49.22604752	1252.767944	-227.9729614	62.53409576	1253.689941	-214.2739868	50.4059906	1248.897461	-266.3489685	55.25914001	1125.084839	-539.5184326	50.04499435	1247.221924	-539.0661621	63.22050858	1248.4646	-526.744812	49.28526306	1250.62793	-504.9161377	60.86891174	1119.86499	-214.1092834	47.5916481	1294.793213	-214.4098816	51.79419327	1295.084351	-210.0838928	47.96424484	1293.570923	-226.5287933	49.49671936	1254.472168	-550.888855	46.83125305	1289.148438	-550.7460327	50.99194336	1289.540894	-546.8550415	46.59132767	1290.223999	-539.961853	50.24951935	1248.93042	-410.0851135	1443.512085	1128.493652	-392.2585449	1484.154785	1349.956055	-185.1015472	1449.11084	1109.356201	-419.0183716	1665.620239	1088.451538	-257.7850647	1333.085938	1179.402954	-178.4606934	1318.521362	1327.589722	-244.7274017	1501.022583	1188.918945	-406.1121826	1340.080811	1259.48999	-546.8070068	1321.521729	1172.791992	-631.0982666	1299.090698	1314.382568	-519.3116455	1157.78894	1163.22168	-406.1121826	1340.080811	1259.490112	-406.1121826	1340.080811	1259.48999	-415.9291687	1307.713013	1423.546143	-573.2666626	1337.428101	1248.964233	-401.4801941	1175.752686	1227.345703	-120.5566406	1095.342773	1170.985474	-209.7046661	1052.959229	914.7033691	-341.1133423	964.5523682	1269.336304	-257.7850952	1333.085938	1179.402954	30.28263855	938.5673218	1300.764771	35.54804993	791.4019775	1116.866699	-158.9195099	826.3701782	1385.133789	-109.9978333	1084.36853	1180.070068	96.53816986	833.859436	1391.713989	208.7285156	933.5812988	1424.792114	178.078476	781.7335815	1272.301392	30.28260803	938.5673218	1300.764771	-662.2593994	1077.091187	1154.961914	-503.0304565	1017.263245	944.1060791	-848.5664673	1177.429565	985.8012695	-546.8070068	1321.521729	1172.791992	-838.112915	918.0933838	1254.330078	-780.0093994	752.4226074	1092.068848	-1002.517761	1006.635925	1105.055908	-674.5691528	1065.961426	1161.917725	-934.7537842	826.0285034	1343.106689	-1058.61145	921.1374512	1306.908813	-902.8708496	916.444519	1471.578979	-838.112854	918.0933838	1254.330078	-0.349576801	1.756565928	-11.65555191	0.349576801	-1.756565928	-11.65555191	-4.270733833	-17.10149765	-2.705300093	-2.027934551	-15.14796638	-4.857778072	7.715480804	-12.02641296	-14.09909153	6.087126255	-9.25720787	-13.35907555	-3.250918865	-16.48633766	-12.6839323	-3.127639771	-11.4476757	-10.94741726	0.642822027	10.61610794	-5.69955492	0.307291359	8.182343483	-3.422630548	3.13E-15	7.95E-16	-3.98E-16	4.12E-15	-2.53E-31	2.53E-31	5.70E-16	0	-9.313058853	5.36E-16	0	-8.750387192	1.116546631	-8.405631065	21.25823212	-1.116546631	8.405631065	21.25823212	-1.267239332	1.588944912	0.514361799	1.267239332	-1.588944912	0.514361799	-29.06694603	-29.51878357	-6.198495388	5.33E-15	-1.91E-14	-35.15859985	10.96132946	123.5618515	-1.558896422	-26.60136414	-40.44665527	-7.750571728	2.11E-15	-2.23E-12	-34.49619675	8.274949074	115.646019	-7.222343445	1.584563494	-3.361118317	-11.06789589	-1.584563494	3.361118317	-11.06789589	2.26672411	4.53040123	-10.21963596	-2.26672411	-4.53040123	-10.21963596	-1.02E-21	-1.67E-05	-6.27E-38	-3.07E-21	-5.02E-05	-1.88E-37	1.75E-21	2.86E-05	1.07E-37	5.25E-21	8.58E-05	3.22E-37	-3.49E-21	-5.70E-05	-2.14E-37	1.84E-21	3.00E-05	1.12E-37	4.26E-20	0.000696418	2.61E-36	4.26E-20	0.000696418	2.61E-36	4.30E-19	0.007019539	2.63E-35	4.30E-19	0.007019539	2.63E-35	2.11E-21	3.44E-05	1.29E-37	-7.93E-21	-0.000129522	-4.86E-37	1.10E-22	1.79E-06	6.73E-39	8.70E-21	0.000142021	5.32E-37	-4.32E-23	-7.06E-07	-2.65E-39	-1.73E-21	-2.82E-05	-1.06E-37	-398.0210266	1.304700017	259.0899963	-231.4150085	1.697000027	-251.3170013	-396.9869995	4.582600117	-949.9620361	0	0	0	0	0	0	-0.193341702	1.563815355	-0.109583713	0.157782584	1.569760084	-0.072775103	-0.063494876	0.590358078	0.074487813	0.044094801	0.591553152	0.07859949	-0.01255621	-0.006405537	0.141541943	0.008161775	-0.011627227	0.141534522	-0.000123819	4.457740307	0.921762824	-0.000123819	4.457740307	0.921762824	-0.143762931	8.845607758	1.747122884	-0.143762931	8.845607758	1.747122884	0.234005362	0.42480436	0.075380445	-0.181978911	0.442460299	0.108071759	0.103026278	0.133694038	0.134812221	-0.080094278	0.133532867	0.149462	0.019936657	0.04014346	-0.03825644	-0.033125602	0.033851504	-0.034955397	0	0	0	0	0	0	0	0	0	0	0	0	-59.23757553	-2.545562744	13.03374577	-46.36563873	-1.689050198	4.623003483	-15.14760971	0.801425457	10.31808567	-10.43962097	0.543311238	11.31692219	-1.303418517	0.732172251	7.588594437	-0.934459865	0.512024105	7.547857761	-13.97200775	-2.879085779	-73.31085205	13.97200775	2.879085779	-73.31085205	-79.04373169	-30.63389397	928.6531982	79.04373169	30.63389397	928.6531982	-57.20961761	-9.866499901	36.34834671	-44.18006897	-7.824908733	45.24288177	-16.49241447	-0.451929182	22.16438675	-13.05725288	-0.521635175	25.19379997	-1.163721919	2.64E-15	-2.231784582	-2.012742281	7.96E-16	-2.124585629	-226.907547	480.0220032	1207.671265	-552.635498	482.1371155	1195.38623	-230.6210022	46.53808212	1130.384888	-541.690918	47.08723068	1125.755737	-281.6473389	469.6714172	1218.208984	-498.7120972	473.9603271	1206.259155	-266.6044617	49.66996002	1150.201904	-505.3377075	54.71477509	1142.772583	-194.9959717	673.2487793	1188.276367	-588.8831177	672.6347656	1179.334839	-168.708252	253.3608704	1126.558105	-610.8726807	254.1921082	1125.399292	-398.0210266	1.304700017	259.0899963	-231.4150085	1.697000027	-251.3170013	-396.9869995	4.582600117	-949.9620361	-397.7965088	934.210144	1236.686646	-397.7965088	2.44E-14	1236.686646	0	0	0	0	0	0	0	0	0	0	0	0	-332.4400635	848.772522	1200.470093	-458.3231812	848.6744385	1196.405762	-0.193341702	1.563815355	-0.109583713
95	0.626666667	-334.4350281	1545.613159	1298.585571	-333.0289917	1521.581543	1159.297729	-461.1528931	1542.952515	1306.473999	-483.9184875	1518.325562	1180.624023	-400.5291748	1406.33728	1149.050537	-393.3919678	1225.988037	1086.121704	-406.5188293	1338.730347	1266.368652	-407.5437927	1302.363525	1286.915649	-508.0241089	1267.639648	1076.78479	-254.1519775	1379.873413	1182.062988	-145.9967499	1189.359131	1152.289429	-88.51267242	1113.789917	1172.577515	-42.14335632	1070.536865	1193.627686	47.74749756	939.8678589	1269.765015	21.55045891	948.0767212	1333.921021	77.11108398	899.2226563	1351.222046	-554.5824585	1367.78833	1175.530762	-622.6295166	1281.763184	1156.359131	-694.3311157	1092.914551	1145.55835	-817.6092529	952.147644	1201.706543	-843.1948853	909.9865723	1219.785889	-842.836792	935.4567261	1285.514771	-901.3353882	883.9456787	1294.918213	-393.7904358	971.734314	1081.832031	-254.30896	934.1251221	1268.3396	-540.5592651	934.1879883	1259.395508	-206.4455719	643.6018066	1238.148926	-191.1537323	553.4275513	1156.454468	-235.5059357	566.9043579	1292.151123	-202.9376068	258.3052063	1178.973267	-188.1417694	179.752655	1086.845215	-227.6572876	178.5057831	1223.457642	-275.5532837	39.4007988	1091.22583	-226.2812042	38.89076233	1252.052002	-583.7705078	661.0031128	1197.107666	-555.2124023	589.6942749	1099.787964	-582.7493286	572.1654053	1239.883423	-577.0794678	267.6438599	1153.530151	-555.1559448	203.0294037	1053.475098	-571.2677002	182.421463	1193.275269	-495.2228699	41.33380508	1085.153931	-539.8677979	39.88151169	1246.264771	-395.3796387	848.7220459	1198.47583	-395.8425598	845.6669312	1213.270386	-382.7908936	848.7192383	1198.869141	-396.1474609	972.0710449	1223.923584	-393.5762939	959.6157837	1140.578857	-393.769165	958.3428345	1146.743286	-387.2818909	959.6144409	1140.775513	-393.9604797	1021.290283	1153.302612	-281.644989	469.6693115	1218.225464	-274.909668	472.329071	1255.824463	-244.2958679	474.3452759	1211.204102	-332.4380493	848.7711182	1200.50647	-498.7129211	473.9565735	1206.277832	-505.901001	475.7014771	1243.246582	-461.9240417	470.1833496	1213.609009	-458.321106	848.6728516	1196.445068	-266.4547729	45.47039795	1149.523804	-248.4341431	40.69419098	1182.999023	-231.5414581	49.66756439	1131.327881	-280.4418335	436.0692749	1212.783691	-505.405304	50.52222061	1142.141846	-521.0849609	45.34513855	1177.957764	-469.2223816	47.61473083	1157.56189	-499.242981	440.4172668	1201.197754	-227.0204773	49.22566605	1252.768188	-227.9724274	62.53369904	1253.690308	-214.2734985	50.40569305	1248.897461	-266.350769	55.25971222	1125.085938	-539.5187988	50.04465866	1247.223389	-539.0664063	63.22015762	1248.466187	-526.7451782	49.28480911	1250.629395	-504.9161072	60.86939621	1119.866577	-214.1079865	47.5908699	1294.793213	-214.4086304	51.79340363	1295.084351	-210.0826416	47.96352386	1293.570923	-226.5279541	49.49609756	1254.472412	-550.8892212	46.83064651	1289.14978	-550.7463379	50.99132919	1289.542236	-546.8554688	46.59067917	1290.225342	-539.9622192	50.24895859	1248.931885	-410.0960999	1443.510376	1128.514648	-392.2551575	1484.15332	1349.97583	-185.1142578	1449.120728	1109.360474	-419.0437012	1665.618164	1088.473877	-257.788208	1333.089233	1179.414429	-178.4517212	1318.534058	1327.595581	-244.735611	1501.026733	1188.921753	-406.1092529	1340.082642	1259.512695	-546.8102417	1321.514282	1172.827637	-631.0884399	1299.087158	1314.425903	-519.3097534	1157.782471	1163.262939	-406.1092529	1340.082642	1259.512695	-406.1092529	1340.082642	1259.512695	-415.9100037	1307.722412	1423.571045	-573.2644043	1337.423706	1249.002441	-401.4745789	1175.753418	1227.375854	-120.5517197	1095.351318	1170.991333	-209.7288818	1052.952515	914.722168	-341.0912781	964.5570068	1269.374634	-257.788208	1333.089233	1179.414429	30.30964088	938.5873413	1300.760132	35.55863571	791.413269	1116.86792	-158.8785706	826.3864746	1385.157471	-109.9913864	1084.377808	1180.075195	96.58277893	833.8880005	1391.70166	208.7747345	933.6125488	1424.753418	178.1013336	781.7583008	1272.279419	30.30957031	938.5872803	1300.760132	-662.2574463	1077.077026	1155.016235	-503.0654297	1017.257874	944.1265869	-848.6031494	1177.411255	985.8914795	-546.8103027	1321.514282	1172.827637	-838.0899658	918.0751343	1254.424072	-780.0164795	752.4012451	1092.150391	-1002.529663	1006.614441	1105.180908	-674.5657349	1065.946899	1161.974854	-934.7019653	825.9996948	1343.224609	-1058.580322	921.0938721	1307.050293	-902.8022461	916.4238892	1471.689331	-838.0899658	918.0750732	1254.424072	-0.349393457	1.755283356	-11.65693378	0.349393457	-1.755283356	-11.65693378	-4.27095747	-17.10248947	-2.705858469	-2.028517246	-15.14798164	-4.85814476	7.715343475	-12.02593327	-14.09760475	6.0876894	-9.25677681	-13.35716915	-3.251405716	-16.48632622	-12.6829958	-3.128513336	-11.44991112	-10.94624901	0.64294368	10.61574173	-5.700948238	0.307459444	8.18279171	-3.424201488	-3.83E-15	1.59E-15	2.39E-15	1.09E-15	-3.98E-16	7.95E-16	5.70E-16	0	-9.314352989	5.36E-16	0	-8.751927376	1.115202427	-8.404756546	21.25546646	-1.115202427	8.404756546	21.25546646	-1.26855588	1.584553361	0.518358827	1.26855588	-1.584553361	0.518358827	-29.06698036	-29.52017593	-6.197593212	-4.21E-15	-5.88E-13	-35.15865326	10.959795	123.5589294	-1.557913899	-26.60150337	-40.43987656	-7.749884605	2.11E-15	4.50E-12	-34.49829865	8.279028893	115.6427689	-7.219743729	1.585518599	-3.355565071	-11.06533051	-1.585518599	3.355565071	-11.06533051	2.27034235	4.534040928	-10.21931553	-2.27034235	-4.534040928	-10.21931553	-1.42E-21	-2.32E-05	-8.70E-38	-2.90E-21	-4.74E-05	-1.78E-37	1.76E-21	2.87E-05	1.08E-37	5.60E-21	9.14E-05	3.43E-37	-3.49E-21	-5.69E-05	-2.13E-37	1.86E-21	3.05E-05	1.14E-37	4.30E-20	0.000701473	2.63E-36	4.30E-20	0.000701473	2.63E-36	4.36E-19	0.007124309	2.67E-35	4.36E-19	0.007124309	2.67E-35	2.30E-21	3.75E-05	1.41E-37	-7.46E-21	-0.000121867	-4.57E-37	1.00E-22	1.64E-06	6.13E-39	8.39E-21	0.000136977	5.14E-37	-5.39E-23	-8.80E-07	-3.30E-39	-1.89E-21	-3.09E-05	-1.16E-37	-398.0210266	1.304700017	259.0899963	-231.4150085	1.697000027	-251.3170013	-396.9869995	4.582600117	-949.9620361	0	0	0	0	0	0	-0.193357721	1.563820004	-0.109502874	0.157817364	1.569758296	-0.072686642	-0.063502185	0.590355098	0.07450752	0.044106569	0.5915488	0.078616679	-0.012557368	-0.0064071	0.141541794	0.008163645	-0.011627878	0.141534194	-0.000126295	4.457717896	0.921870351	-0.000126295	4.457717896	0.921870351	-0.14409256	8.845686913	1.746730924	-0.14409256	8.845686913	1.746730924	0.234011531	0.424795598	0.07540784	-0.181983277	0.442469478	0.108056054	0.103028439	0.133683816	0.134820014	-0.080104627	0.13353613	0.149462327	0.019939048	0.040140748	-0.038257491	-0.033123795	0.033857428	-0.03495568	0	0	0	0	0	0	0	0	0	0	0	0	-59.24190903	-2.545780182	13.00841808	-46.37576675	-1.689504147	4.596481323	-15.1493969	0.801499367	10.32305527	-10.44219208	0.54341656	11.32107544	-1.303417444	0.732238293	7.588469982	-0.934454262	0.512115479	7.547625542	-13.96575069	-2.877873182	-73.37094879	13.96575069	2.877873182	-73.37094879	-79.11553955	-30.67506409	928.7584229	79.11553955	30.67506409	928.7584229	-57.21100235	-9.866603851	36.35493851	-44.18545914	-7.82756424	45.23992157	-16.49267387	-0.451859146	22.16568756	-13.06102467	-0.521800756	25.19359398	-1.163873196	1.88E-16	-2.23175025	-2.012575626	-2.06E-15	-2.124703169	-226.9055176	480.0212097	1207.687378	-552.6365967	482.1341858	1195.406982	-230.6219788	46.53913116	1130.386475	-541.6922607	47.08808899	1125.759644	-281.644989	469.6693115	1218.225464	-498.7129211	473.956543	1206.27771	-266.6051636	49.67038727	1150.204102	-505.3390808	54.71464157	1142.776855	-194.9941559	673.2481079	1188.302002	-588.883728	672.6343384	1179.367798	-168.7083282	253.3614044	1126.565796	-610.8729858	254.1921997	1125.409424	-398.0210266	1.304700017	259.0899963	-231.4150085	1.697000027	-251.3170013	-396.9869995	4.582600117	-949.9620361	-397.7936707	934.2096558	1236.709717	-397.7936707	2.44E-14	1236.709717	0	0	0	0	0	0	0	0	0	0	0	0	-332.4380493	848.7711182	1200.50647	-458.3212585	848.6729126	1196.445068	-0.193357721	1.563819885	-0.109502874
